<svg xmlns="http://www.w3.org/2000/svg" width="104.583" height="104.582" viewBox="0 0 104.583 104.582">
  <path id="noun_stack_773583_000000" d="M98.909,2.6H45.735a8.263,8.263,0,0,0-8.274,8.274V20.03H28.3A8.263,8.263,0,0,0,20.03,28.3v9.156H10.874A8.263,8.263,0,0,0,2.6,45.735V98.909a8.263,8.263,0,0,0,8.274,8.274H64.048a8.263,8.263,0,0,0,8.274-8.274V89.752h9.156a8.263,8.263,0,0,0,8.274-8.274V72.322h9.156a8.263,8.263,0,0,0,8.274-8.274V10.874A8.263,8.263,0,0,0,98.909,2.6ZM67.247,98.909a3.319,3.319,0,0,1-3.31,3.31H10.874a3.319,3.319,0,0,1-3.31-3.31V45.735a3.319,3.319,0,0,1,3.31-3.31H64.048a3.319,3.319,0,0,1,3.31,3.31V98.909Zm17.541-17.43a3.319,3.319,0,0,1-3.31,3.31H72.322V45.735a8.263,8.263,0,0,0-8.274-8.274H24.995V28.3a3.319,3.319,0,0,1,3.31-3.31H81.478a3.319,3.319,0,0,1,3.31,3.31V81.478Zm17.43-17.43a3.319,3.319,0,0,1-3.31,3.31H89.752V28.3a8.263,8.263,0,0,0-8.274-8.274H42.425V10.874a3.319,3.319,0,0,1,3.31-3.31H98.909a3.319,3.319,0,0,1,3.31,3.31Z" transform="translate(-2.6 -2.6)" fill="#fff"/>
</svg>
