<svg xmlns="http://www.w3.org/2000/svg" width="87.993" height="91.167" viewBox="0 0 87.993 91.167">
  <g id="Group_7716" data-name="Group 7716" transform="translate(1.15 2)">
    <path id="Path_2134" data-name="Path 2134" d="M90.112,92.411c0,15.981-13.075,17.756-29.056,17.756S32,108.392,32,92.411c0-12.268,7.587-27.442,18.241-33.9a19.371,19.371,0,1,1,21.63,0C82.525,64.969,90.112,80.143,90.112,92.411Z" transform="translate(-5.268 -22.999)" fill="none" stroke="#fff" stroke-width="4"/>
    <path id="Path_2135" data-name="Path 2135" d="M8.2,968.808a.567.567,0,0,1-.566-.566V961.17H.566a.566.566,0,1,1,0-1.131H7.638v-7.073a.566.566,0,1,1,1.132,0v7.073h7.072a.566.566,0,1,1,0,1.131H8.77v7.072A.567.567,0,0,1,8.2,968.808Z" transform="translate(0 -882.666)" fill="#fff" stroke="#fff" stroke-width="2.3"/>
  </g>
</svg>
