<svg xmlns="http://www.w3.org/2000/svg" width="112.37" height="103.09" viewBox="0 0 112.37 103.09">
  <g id="Group_7705" data-name="Group 7705" transform="translate(0.499 0.501)">
    <path id="Path_3170" data-name="Path 3170" d="M719.05,373.76l-18.144-7.849a3.761,3.761,0,0,1-1.306-1.432l12.118-.009a21.5,21.5,0,0,0,9.209-1.251,5.514,5.514,0,0,0,2.3-8.221c-3.462-4.921-11.539-17.8-11.791-30.852-.009-.225-.745-22.43-22.669-22.613a26.208,26.208,0,0,0-8.926,1.587,15.25,15.25,0,0,0-2.766-4.568c-3.8-4.35-10-6.552-18.39-6.552s-14.573,2.2-18.388,6.552a16.6,16.6,0,0,0-3.879,12.109v9.879a7.388,7.388,0,0,0-1.859,4.866v7.425a7.361,7.361,0,0,0,2.782,5.773,38.86,38.86,0,0,0,6.5,13.432v6.144a4.9,4.9,0,0,1-2.557,4.306l-16.557,9.035a16.732,16.732,0,0,0-8.729,14.7v7.868H727.37v-6.861a14.993,14.993,0,0,0-8.32-13.469Zm-21.381,16.613H619.717v-4.151a13.026,13.026,0,0,1,6.786-11.436l16.56-9.037a8.621,8.621,0,0,0,4.5-7.569v-7.457l-.436-.517a35.018,35.018,0,0,1-6.325-13.114l-.174-.735-.633-.408a3.687,3.687,0,0,1-1.712-3.107v-7.434a3.648,3.648,0,0,1,1.242-2.736l.605-.554V310.562l-.007-.244A12.837,12.837,0,0,1,643.091,301c3.081-3.508,8.33-5.283,15.6-5.283,7.251,0,12.49,1.757,15.571,5.246a12,12,0,0,1,2.684,5.32c.026.128.063.255.081.39s.053.264.081.39c.019.146.044.281.063.418.009.1.028.2.037.29.028.234.053.453.063.661a.084.084,0,0,1,.009.046c.009.2.019.39.028.561v.58c-.009.434-.037.7-.037.705l-.019,11.791.617.564a3.647,3.647,0,0,1,1.241,2.726v7.434a3.7,3.7,0,0,1-2.638,3.525l-.923.281-.3.917a38.926,38.926,0,0,1-5.255,10.6,23.478,23.478,0,0,1-1.559,2l-.464.527v7.659a8.807,8.807,0,0,0,.128,1.385c.009.09.037.19.056.281a8.579,8.579,0,0,0,.29,1.1,2.281,2.281,0,0,0,.091.246,7.768,7.768,0,0,0,.506,1.123c.019.044.046.081.065.128a9.169,9.169,0,0,0,.933,1.341l.427.524h.072a8.635,8.635,0,0,0,2.2,1.587l17.729,8.863a12.949,12.949,0,0,1,7.2,11.657Zm25.984,0H701.386v-3.787a16.665,16.665,0,0,0-9.255-14.975L679.4,365.24a3.207,3.207,0,0,0-2.944-4.476h-4.116c-.081-.155-.134-.318-.209-.48a4.919,4.919,0,0,1-.262-.645,4.658,4.658,0,0,1-.181-1.285v-6.272q.641-.79,1.332-1.768a42.391,42.391,0,0,0,5.485-10.768,7.36,7.36,0,0,0,4.323-6.706v-7.434a7.388,7.388,0,0,0-1.859-4.866v-9.879a16.471,16.471,0,0,0-.153-3.97,22.212,22.212,0,0,1,7.956-1.441c18.272.144,18.933,18.209,18.952,18.97.281,14.075,8.81,27.706,12.471,32.908a1.827,1.827,0,0,1,.265,1.541,1.8,1.8,0,0,1-1,1.144c-3.119,1.341-7.351.961-7.569.951H699.119a3.414,3.414,0,0,0-3.072,4.931,7.766,7.766,0,0,0,3.29,3.58l18.1,7.831a11.289,11.289,0,0,1,6.216,10.123Zm0,0" transform="translate(-615.999 -292.001)" fill="#fff" stroke="#fff" stroke-width="1"/>
  </g>
</svg>
