<svg xmlns="http://www.w3.org/2000/svg" xmlns:xlink="http://www.w3.org/1999/xlink" width="107.278" height="107.278" viewBox="0 0 107.278 107.278">
  <defs>
    <clipPath id="clip-path">
      <rect id="Rectangle_3131" data-name="Rectangle 3131" width="107.278" height="107.278" fill="#fff" stroke="#fff" stroke-width="1"/>
    </clipPath>
  </defs>
  <g id="Group_7703" data-name="Group 7703" transform="translate(-0.001 0)">
    <g id="Group_7701" data-name="Group 7701" transform="translate(0.001 -0.001)">
      <g id="Group_7700" data-name="Group 7700">
        <g id="Group_7699" data-name="Group 7699" clip-path="url(#clip-path)">
          <path id="Path_3168" data-name="Path 3168" d="M725.247,342.313a7.716,7.716,0,0,0-4.282-13.157l-26.055-3.786a3.409,3.409,0,0,1-2.555-1.863l-11.643-23.6a7.721,7.721,0,0,0-13.843,0l-11.643,23.6a3.426,3.426,0,0,1-2.566,1.863L626.6,329.157a7.711,7.711,0,0,0-4.271,13.157l18.849,18.367a3.422,3.422,0,0,1,.977,3.018l-4.448,25.95a7.716,7.716,0,0,0,11.191,8.129l23.3-12.255a3.458,3.458,0,0,1,3.174,0l23.289,12.255a7.721,7.721,0,0,0,11.2-8.129l-4.459-25.95a3.369,3.369,0,0,1,.988-3.008Zm-24.076,22.121,4.448,25.939a3.4,3.4,0,0,1-4.944,3.587l-23.3-12.244a7.746,7.746,0,0,0-7.184,0L646.9,393.96a3.4,3.4,0,0,1-4.944-3.587l4.451-25.939a7.729,7.729,0,0,0-2.222-6.837l-18.849-18.364a3.412,3.412,0,0,1,1.885-5.816l26.052-3.786a7.681,7.681,0,0,0,5.808-4.22l11.643-23.6a3.409,3.409,0,0,1,6.11,0l11.657,23.6a7.658,7.658,0,0,0,5.805,4.22l26.044,3.786a3.419,3.419,0,0,1,1.893,5.816L703.39,357.6a7.709,7.709,0,0,0-2.219,6.837Zm0,0" transform="translate(-619.999 -293.979)" fill="#fff" stroke="#fff" stroke-width="1"/>
        </g>
      </g>
    </g>
  </g>
</svg>
