<svg xmlns="http://www.w3.org/2000/svg" width="58.983" height="93.484" viewBox="0 0 58.983 93.484">
  <path id="noun_bookmark_1073282" d="M86.024,20H34.658A3.6,3.6,0,0,0,31.1,23.558v85.867a3.4,3.4,0,0,0,1.857,3.094,3.119,3.119,0,0,0,1.7.464,2.973,2.973,0,0,0,1.857-.619L60.341,97.049l23.826,15.162a3.651,3.651,0,0,0,3.558.155,3.714,3.714,0,0,0,1.857-3.094V23.558A3.6,3.6,0,0,0,86.024,20Zm-1.083,87.26L62.2,92.716a4.4,4.4,0,0,0-1.857-.619,2.973,2.973,0,0,0-1.857.619L35.9,107.26V24.641H84.941V107.26Z" transform="translate(-30.85 -19.75)" fill="#fff" stroke="#fff" stroke-width="0.5"/>
</svg>
