<svg xmlns="http://www.w3.org/2000/svg" width="109.769" height="109.769" viewBox="0 0 109.769 109.769">
  <g id="noun_Radar_1394617" transform="translate(0 0)">
    <g id="Group_7706" data-name="Group 7706" transform="translate(0 0.001)">
      <path id="Path_3176" data-name="Path 3176" d="M109.769,85.769H0V-24H109.769Z" transform="translate(0 24)" fill="none" fill-rule="evenodd"/>
      <path id="Path_3177" data-name="Path 3177" d="M47.737,29.442a2.287,2.287,0,0,1,0,4.574A13.721,13.721,0,1,0,61.458,47.737a2.287,2.287,0,1,1,4.574,0A18.295,18.295,0,1,1,47.737,29.442Zm0-13.721a2.287,2.287,0,0,1,0,4.574A27.442,27.442,0,1,0,75.179,47.737a2.287,2.287,0,1,1,4.574,0A32.016,32.016,0,1,1,47.737,15.721ZM47.737,2a2.287,2.287,0,0,1,0,4.574A41.163,41.163,0,1,0,88.9,47.737a2.287,2.287,0,1,1,4.574,0A45.737,45.737,0,1,1,47.737,2Zm0,50.311a4.574,4.574,0,1,1,4.574-4.574A4.574,4.574,0,0,1,47.737,52.311Z" transform="translate(7.147 7.147)" fill="#fff" fill-rule="evenodd"/>
    </g>
  </g>
</svg>
