<svg xmlns="http://www.w3.org/2000/svg" width="23.483" height="14" viewBox="0 0 23.483 14">
  <g id="Group_5172" data-name="Group 5172" transform="translate(-1105.85 -157)">
    <path id="Path_2134" data-name="Path 2134" d="M41.333,34.148c0,2.567-2.1,2.852-4.667,2.852S32,36.715,32,34.148A6.9,6.9,0,0,1,34.93,28.7a3.111,3.111,0,1,1,3.474,0A6.9,6.9,0,0,1,41.333,34.148Z" transform="translate(1088 134)" fill="#bed0de"/>
    <path id="Path_2135" data-name="Path 2135" d="M5,962.4a.346.346,0,0,1-.345-.345v-4.31H.345a.345.345,0,0,1,0-.69h4.31v-4.31a.345.345,0,0,1,.69,0v4.31h4.31a.345.345,0,0,1,0,.69H5.345v4.31A.346.346,0,0,1,5,962.4Z" transform="translate(1106 -793.4)" fill="#bed0de" stroke="#fff" stroke-width="0.3"/>
  </g>
</svg>
